HIERARCHY
ROOT Hips
{
  OFFSET 265.287 66.7526 -254.649
  CHANNELS 6 Xposition Yposition Zposition Zrotation Xrotation Yrotation
  JOINT LeftUpLeg
  {
    OFFSET 8.64259 1.95398 -2.38835
    CHANNELS 3 Zrotation Xrotation Yrotation
    JOINT LeftLeg
    {
      OFFSET 43.7702 0 0
      CHANNELS 3 Zrotation Xrotation Yrotation
      JOINT LeftFoot
      {
        OFFSET 40.6238 0 0
        CHANNELS 3 Zrotation Xrotation Yrotation
        JOINT LeftToeBase
        {
          OFFSET 12.7242 0 0
          CHANNELS 3 Zrotation Xrotation Yrotation
          End Site
          {
            OFFSET 0 0 0
          }
        }
      }
    }
  }
  JOINT RightUpLeg
  {
    OFFSET -8.2249 1.95398 -2.59336
    CHANNELS 3 Zrotation Xrotation Yrotation
    JOINT RightLeg
    {
      OFFSET 43.5653 0 0
      CHANNELS 3 Zrotation Xrotation Yrotation
      JOINT RightFoot
      {
        OFFSET 40.6238 0 0
        CHANNELS 3 Zrotation Xrotation Yrotation
        JOINT RightToeBase
        {
          OFFSET 12.7242 0 0
          CHANNELS 3 Zrotation Xrotation Yrotation
          End Site
          {
            OFFSET 0 0 0
          }
        }
      }
    }
  }
  JOINT Spine
  {
    OFFSET 0.165834 0.87714 6.61349
    CHANNELS 3 Zrotation Xrotation Yrotation
    JOINT Spine1
    {
      OFFSET 7.38963 1.71661e-005 0
      CHANNELS 3 Zrotation Xrotation Yrotation
      JOINT Spine2
      {
        OFFSET 11.9445 1.14441e-005 0
        CHANNELS 3 Zrotation Xrotation Yrotation
        JOINT Spine3
        {
          OFFSET 14.7254 4.19617e-005 0
          CHANNELS 3 Zrotation Xrotation Yrotation
          JOINT Spine4
          {
            OFFSET 10.9679 0 0
            CHANNELS 3 Zrotation Xrotation Yrotation
            JOINT RightShoulder
            {
              OFFSET 2.46616 -1.6653 3.69651
              CHANNELS 3 Zrotation Xrotation Yrotation
              JOINT RightArm
              {
                OFFSET 13.0012 0 0
                CHANNELS 3 Zrotation Xrotation Yrotation
                JOINT RightForeArm
                {
                  OFFSET 28.7848 1.52588e-005 0
                  CHANNELS 3 Zrotation Xrotation Yrotation
                  JOINT RightHand
                  {
                    OFFSET 26.5688 1.52588e-005 0
                    CHANNELS 3 Zrotation Xrotation Yrotation
                    End Site
                    {
                      OFFSET 0 0 0
                    }
                  }
                }
              }
            }
            JOINT LeftShoulder
            {
              OFFSET 2.38034 -1.29275 -3.7523
              CHANNELS 3 Zrotation Xrotation Yrotation
              JOINT LeftArm
              {
                OFFSET 16.3182 6.10351e-005 0
                CHANNELS 3 Zrotation Xrotation Yrotation
                JOINT LeftForeArm
                {
                  OFFSET 27.0901 0 0
                  CHANNELS 3 Zrotation Xrotation Yrotation
                  JOINT LeftHand
                  {
                    OFFSET 24.5451 1.52588e-005 0
                    CHANNELS 3 Zrotation Xrotation Yrotation
                    End Site
                    {
                      OFFSET 0 0 0
                    }
                  }
                }
              }
            }
            JOINT Neck
            {
              OFFSET 5.0226 -0.0266342 0
              CHANNELS 3 Zrotation Xrotation Yrotation
              JOINT Head
              {
                OFFSET 6.69364 2.86102e-005 0
                CHANNELS 3 Zrotation Xrotation Yrotation
                End Site
                {
                  OFFSET 0 0 0
                }
              }
            }
          }
        }
      }
    }
  }
}
MOTION
Frames:	7
Frame Time:	0.0416667
-250.165 90.3286 299.014 -100.344 -33.7578 -94.4405 -178.239 11.8548 86.7533 -4.89393 -11.7136 3.67762 52.375 -2.51485 -1.57487 48.2075 -5.21064 11.1637 170.502 -0.98163 81.4789 -34.6447 -25.4656 -1.28062 69.664 0.723807 24.6357 31.9401 -0.36355 -1.09898 -1.54948 9.01429 -87.977 8.86841 -2.19092 4.15172 -2.80762 -2.00625 4.24392 -25.3209 -3.33675 3.30254 -5.30824 -3.33677 3.30255 69.0547 -52.4257 -130.613 24.0048 -20.2239 -25.1192 4.25616 -17.7631 -19.2095 -19.0099 -1.31225 2.83425 -73.0754 -11.11 109.81 -62.0285 -7.59363 0.720499 19.5167 21.8798 -20.9338 -2.95871 -0.10457 -1.62548 13.8455 27.5098 -52.208 -135.504 -3.56953 12.5444 
-245.958 91.1422 293.68 -103.143 -36.0953 -100.549 -178.723 9.5058 83.322 -12.2304 -1.69059 1.18712 51.7305 0.120403 5.90723 46.7636 -4.79833 12.3964 168.656 0.769422 78.8463 -34.4929 -25.6573 0.0806544 72.2991 -1.61033 18.5776 28.8771 0.112071 -1.09037 -1.80699 9.7372 -87.7218 7.42959 -2.62237 4.62014 -4.24729 -2.41671 4.73078 -26.7594 -3.88884 3.62003 -6.74674 -3.88881 3.62003 72.5188 -53.6204 -125.254 24.0498 -14.8072 -29.3551 2.25188 -23.2702 -14.9362 -17.6218 -0.798263 0.0827065 -72.0243 -15.8198 111.227 -58.139 -0.295402 -7.94795 19.3992 24.5161 -22.2106 -6.08056 -0.169707 -1.91525 22.1048 22.8215 -53.0148 -130.83 -8.70543 19.7339 
-243.15 91.8212 288.156 -104.283 -39.5891 -102.968 -175.797 11.1888 82.967 -39.4169 -4.23758 -0.484042 58.8319 3.23597 4.31976 42.7671 -4.16525 7.9506 170.667 3.05135 81.294 -34.2206 -19.9783 -0.0264564 70.6425 -0.122177 17.661 26.9683 0.451232 -1.49285 -2.13473 9.80283 -87.9172 7.31303 -3.36374 4.26518 -4.3611 -3.17293 4.40883 -26.8983 -4.4895 3.0577 -6.88563 -4.48946 3.05772 75.6509 -54.3397 -120.584 26.7699 -10.0391 -26.5761 1.91873 -23.6953 -11.1715 -15.2754 -0.728973 0.322354 -72.0224 -19.4712 110.357 -52.8105 4.29798 -14.5437 18.8115 26.2821 -22.1091 -5.08926 -0.137367 -2.08713 25.4521 18.533 -53.9463 -112.628 -17.4153 36.4165 
-240.68 91.6324 282.539 -100.658 -46.9662 -99.5648 -176.43 11.8085 86.8739 -56.3777 2.32486 1.11886 56.4878 2.1739 5.05598 47.3215 -5.09244 10.1484 174.33 8.07796 86.9608 -32.6796 -11.0348 0.0522858 69.6683 1.36243 15.0163 25.2061 0.890095 -2.48165 -2.86984 9.04841 -88.9046 8.83958 -5.23822 2.52936 -2.82369 -5.12184 2.75783 -25.4407 -5.75558 0.833682 -5.42809 -5.75556 0.833683 78.5538 -52.5236 -117.236 28.1216 -4.40353 -16.979 -0.911987 -26.9131 -10.7625 -10.3324 -0.521191 0.750286 -71.25 -30.3154 109.801 -41.7206 5.97433 -18.0668 16.9458 22.7432 -23.6052 -0.891613 -0.0617605 -1.86091 17.1368 14.3192 -49.8962 -57.4324 -3.70025 62.6525 
-236.936 91.5208 277.482 -97.891 -55.4855 -94.6268 -178.886 7.46353 93.3859 -57.8515 8.94781 4.36289 58.3169 2.48623 4.61254 45.994 -4.91238 7.98859 175.691 12.2521 91.3647 -29.0377 -5.77179 1.19497 65.0765 3.27978 11.2003 25.6278 0.773612 -2.17527 -3.64188 8.57634 -89.8182 9.76356 -7.17748 0.929147 -1.88804 -7.1296 1.24573 -24.5806 -7.12315 -1.28229 -4.56798 -7.12316 -1.2823 81.1927 -52.8176 -113.323 25.5704 -1.38544 -10.7391 -0.464329 -28.0887 -8.03319 -8.29095 -0.497887 1.91693 -72.2353 -38.5641 106.655 -32.4817 6.37179 -21.8746 15.7971 18.7227 -26.3326 3.12023 0.0523661 -1.39163 12.22 10.1732 -30.7898 -12.9666 14.9519 31.7272 
-231.751 91.8299 272.602 -97.3272 -61.4036 -93.8319 -178.947 0.349811 96.4826 -46.358 16.6062 7.35293 57.7949 1.13132 -1.16412 48.6394 -5.58291 7.56414 175.494 15.1287 90.7129 -24.1171 -3.87798 1.6701 57.6722 5.76288 9.2391 27.1479 0.605634 -2.7314 -3.75855 8.32326 -89.8667 10.273 -7.42768 0.902574 -1.37713 -7.38071 1.23037 -24.0806 -7.3536 -1.384 -4.06799 -7.35361 -1.38402 84.2459 -57.4519 -107.488 21.2778 -3.04228 -6.59949 3.34234 -21.1861 -3.32804 -10.636 -0.61501 1.59312 -75.4798 -36.0677 101.14 -29.0163 10.3882 -29.0764 13.4839 16.6454 -25.8826 3.09504 0.0211365 -2.07591 12.1438 6.60569 -33.4697 -14.5664 11.6618 32.3153 
-225.079 91.6555 267.591 -98.832 -64.2414 -95.751 -178.175 -4.68496 94.9614 -34.0367 25.1674 8.76638 62.7098 3.09118 1.21714 50.3223 -6.26471 3.85095 175.137 16.4275 87.9818 -17.4237 -5.45324 1.45282 50.0983 7.86443 7.26363 36.7146 -1.02499 -5.41072 -3.43609 8.23433 -89.9075 10.4425 -6.80248 0.783461 -1.21097 -6.76137 1.08345 -23.887 -6.72194 -1.30676 -3.87431 -6.72195 -1.30677 89.0414 -58.351 -100.602 22.1589 1.19013 -1.50206 0.43743 -21.9295 -5.13853 -8.34594 -0.515648 2.0678 -78.4059 -39.9496 95.9004 -22.5894 11.2515 -34.931 15.641 18.4022 -30.4861 1.39572 -0.0423391 -2.84803 11.8194 3.92667 -29.752 -13.2173 8.7249 28.4146 
